<?xml version="1.0" encoding="UTF-8"?>
<svg xmlns="http://www.w3.org/2000/svg" width="170" height="100" viewBox="0 0 170 100">
  <g transform="translate(1.6667 78.3333)" fill="#000000">
    <path d="M6.81658703,12.1820616 L9.30263642,5.16733601 L9.35609984,5.16733601 L11.7619541,12.1820616 L6.81658703,12.1820616 Z M7.21756274,0.455153949 L0,19.5716198 L4.22361079,19.5716198 L5.72058676,15.3145917 L12.8579544,15.3145917 L14.3014669,19.5716198 L18.6587363,19.5716198 L11.5213687,0.455153949 L7.21756274,0.455153949 Z"/>
    <polygon points="20.3161025 0.455153949 20.3161025 19.5716198 33.815618 19.5716198 33.815618 16.0374833 24.5129816 16.0374833 24.5129816 0.455153949"/>
    <path d="M44.8068077,0.606871932 C46.0008242,0.606871932 47.0166294,0.780901383 47.8542231,1.12896029 C48.6918168,1.47701919 49.3734755,1.93663543 49.8991992,2.50780901 C50.4249229,3.0789826 50.8080774,3.73047747 51.0486629,4.46229362 C51.2892483,5.19410977 51.409541,5.95269969 51.409541,6.73806336 C51.409541,7.50557787 51.2892483,8.25970549 51.0486629,9.00044623 C50.8080774,9.74118697 50.4249229,10.3971441 49.8991992,10.9683177 C49.3734755,11.5394913 48.6918168,11.9991075 47.8542231,12.3471664 C47.0166294,12.6952253 46.0008242,12.8692548 44.8068077,12.8692548 L40.3960749,12.8692548 L40.3960749,19.7233378 L36.1991958,19.7233378 L36.1991958,9.60187193 L43.657344,9.60285587 C44.0182221,9.60285587 44.3690759,9.58277555 44.7099052,9.5426149 L45.0473931,9.49576082 C45.4929217,9.42436412 45.8849868,9.28603302 46.2235885,9.08076751 C46.5621902,8.87550201 46.8339626,8.58545292 47.0389058,8.21062026 C47.2438489,7.83578759 47.3463205,7.3449353 47.3463205,6.73806336 C47.3463205,6.13119143 47.2438489,5.64033913 47.0389058,5.26550647 C46.8339626,4.89067381 46.5621902,4.60062472 46.2235885,4.39535921 C45.8849868,4.19009371 45.4929217,4.05176261 45.0473931,3.98036591 C44.6018645,3.90896921 44.1385148,3.87327086 43.657344,3.87327086 L36.1991958,3.87287193 L36.1991958,0.606871932 Z"/>
    <polygon points="52.3496063 16.2248996 52.3496063 19.5716198 63.4878204 19.5716198 63.4878204 16.2248996"/>
    <path d="M70.2242122,13.2262383 L66.1609917,13.2262383 C66.1431706,14.4042838 66.3570243,15.4216867 66.8025529,16.2784471 C67.2480814,17.1352075 67.849545,17.8402499 68.6069436,18.3935743 C69.3643421,18.9468987 70.2375781,19.3529674 71.2266515,19.6117805 C72.2157249,19.8705935 73.2359853,20 74.2874328,20 C75.5883762,20 76.7333846,19.848282 77.722458,19.5448461 C78.7115314,19.2414101 79.5402145,18.8174922 80.2085074,18.2730924 C80.8768002,17.7286925 81.3802475,17.08166 81.7188492,16.3319946 C82.0574509,15.5823293 82.2267518,14.7701919 82.2267518,13.8955823 C82.2267518,12.8246319 81.9995322,11.94556 81.5450931,11.2583668 C81.0906539,10.5711736 80.5515644,10.0223115 79.9278244,9.61178046 C79.3040844,9.20124944 78.6758891,8.90227577 78.0432385,8.71485944 C77.410588,8.52744311 76.9160513,8.39803659 76.5596284,8.32663989 C75.3656119,8.02320393 74.3988149,7.77331548 73.6592375,7.57697456 C72.9196601,7.38063365 72.3404729,7.18429273 71.9216761,6.98795181 C71.5028792,6.79161089 71.2221962,6.57742079 71.0796271,6.34538153 C70.937058,6.11334226 70.8657734,5.80990629 70.8657734,5.43507363 C70.8657734,5.02454261 70.9548791,4.6854083 71.1330905,4.41767068 C71.3113019,4.14993307 71.5385215,3.92681838 71.8147492,3.74832664 C72.0909769,3.5698349 72.3983916,3.44489067 72.7369934,3.37349398 C73.0755951,3.30209728 73.4141968,3.26639893 73.7527985,3.26639893 C74.2696116,3.26639893 74.7463272,3.31102187 75.1829452,3.40026774 C75.6195632,3.48951361 76.007173,3.64123159 76.3457747,3.85542169 C76.6843764,4.06961178 76.9561489,4.36412316 77.161092,4.73895582 C77.3660351,5.11378849 77.4863278,5.58679161 77.5219701,6.15796519 L81.5851906,6.15796519 C81.5851906,5.05131638 81.3757922,4.10977242 80.9569954,3.33333333 C80.5381985,2.55689424 79.9723772,1.91878626 79.2595315,1.41900937 C78.5466858,0.919232485 77.7313686,0.557786702 76.8135797,0.334672021 C75.8957909,0.11155734 74.9379045,0 73.9399205,0 C73.0845056,0 72.2290908,0.116019634 71.3736759,0.348058902 C70.5182611,0.58009817 69.751952,0.93708166 69.0747486,1.41900937 C68.3975451,1.90093708 67.849545,2.50334672 67.4307482,3.22623829 C67.0119513,3.94912985 66.8025529,4.80142793 66.8025529,5.78313253 C66.8025529,6.65774208 66.9673984,7.40294511 67.2970896,8.01874163 C67.6267807,8.63453815 68.0589434,9.14770192 68.5935777,9.55823293 C69.128212,9.96876394 69.7341308,10.303436 70.4113342,10.562249 C71.0885377,10.821062 71.7835622,11.0397144 72.4964079,11.2182062 C73.1914325,11.4145471 73.8775465,11.5930388 74.5547499,11.7536814 C75.2319533,11.914324 75.8378722,12.1017403 76.3725064,12.3159304 C76.9071407,12.5301205 77.3393034,12.7978581 77.6689946,13.1191432 C77.9986857,13.4404284 78.1635313,13.859884 78.1635313,14.37751 C78.1635313,14.8594378 78.0387833,15.2565819 77.7892873,15.5689424 C77.5397913,15.881303 77.2279213,16.1267291 76.8536773,16.3052209 C76.4794333,16.4837126 76.0784576,16.6041946 75.6507502,16.6666667 C75.2230427,16.7291388 74.822067,16.7603748 74.447823,16.7603748 C73.8953676,16.7603748 73.3607333,16.6934404 72.8439202,16.5595716 C72.3271071,16.4257028 71.8771232,16.2204373 71.4939687,15.9437751 C71.1108141,15.6671129 70.8033994,15.3056671 70.5717245,14.8594378 C70.3400497,14.4132084 70.2242122,13.8688086 70.2242122,13.2262383 Z"/>
    <path d="M88.9364119,6.77822401 L88.9364119,19.5716198 L93.133291,19.5716198 L93.133291,6.77822401 L88.9364119,6.77822401 Z M98.8538778,3.9892905 L98.8538778,0.455153949 L83.2158252,0.455153949 L83.2158252,3.9892905 L98.8538778,3.9892905 Z"/>
    <path d="M105.162562,0.455153949 L105.162562,12.3427041 C105.162562,12.8603302 105.207115,13.3690317 105.296221,13.8688086 C105.385327,14.3685855 105.572449,14.8103525 105.857587,15.1941098 C106.142725,15.577867 106.539245,15.8902276 107.047148,16.1311914 C107.555051,16.3721553 108.236709,16.4926372 109.092124,16.4926372 C109.113218,16.4926372 109.13422,16.4925708 109.155129,16.4924379 L109.153683,19.9981539 L109.092124,20 C106.637262,20 104.709137,19.4361892 103.307749,18.3085676 L103.090854,18.1258367 C101.674074,16.8763945 100.965683,14.9486836 100.965683,12.3427041 L100.965683,0.455153949 L105.162562,0.455153949 Z M117.245297,0.455153949 L117.244683,12.3201539 L113.047683,12.3201539 L113.048418,0.455153949 L117.245297,0.455153949 Z"/>
    <path d="M129.087446,0.455153949 C130.317105,0.455153949 131.462113,0.651494868 132.522471,1.04417671 C133.582829,1.43685855 134.500618,2.0258813 135.275838,2.81124498 C136.051058,3.59660866 136.656976,4.57831325 137.093594,5.75635877 C137.530212,6.93440428 137.748521,8.31771531 137.748521,9.90629183 C137.748521,11.2985274 137.57031,12.583668 137.213887,13.7617135 C136.857464,14.939759 136.318375,15.957162 135.596618,16.8139224 C134.874862,17.6706827 133.974894,18.3444891 132.896715,18.8353414 C131.818536,19.3261937 130.54878,19.5716198 129.087446,19.5716198 L120.854078,19.5716198 L120.854078,16.0371539 L128.793397,16.0374833 C129.29833,16.0374833 129.790886,15.9693093 130.271067,15.8329615 L130.55769,15.7429719 C131.127967,15.546631 131.63587,15.2208835 132.081398,14.7657296 C132.526927,14.3105756 132.883349,13.7170906 133.150667,12.9852744 C133.417984,12.2534583 133.551642,11.3609996 133.551642,10.3078983 C133.551642,9.34404284 133.458081,8.47389558 133.270959,7.69745649 C133.083837,6.9210174 132.776423,6.25613565 132.348715,5.70281124 C131.921008,5.14948684 131.355187,4.72556894 130.651251,4.43105756 C129.947316,4.13654618 129.078536,3.9892905 128.044909,3.9892905 L120.854078,3.98915395 L120.854078,0.455153949 Z"/>
    <path d="M140.662278,7.14859438 L140.662278,19.5716198 L144.859157,19.5716198 L144.859157,7.14859438 L140.662278,7.14859438 Z M140.662278,0.455153949 L140.662278,4.35966087 L144.859157,4.35966087 L144.859157,0.455153949 L140.662278,0.455153949 Z"/>
    <path d="M157.124002,0.456269523 C162.39427,0.456269523 166.666667,4.73538644 166.666667,10.0139447 C166.666667,15.2925029 162.39427,19.5716198 157.124002,19.5716198 C151.853733,19.5716198 147.581337,15.2925029 147.581337,10.0139447 L147.582337,9.93826952 L151.554277,9.93870561 C151.553947,9.96374583 151.553781,9.98882586 151.553781,10.0139447 C151.553781,13.0945156 154.047155,15.5918117 157.122888,15.5918117 C160.198621,15.5918117 162.691995,13.0945156 162.691995,10.0139447 C162.691995,6.93337377 160.198621,4.43607764 157.122888,4.43607764 L157.048337,4.43726952 L157.048904,0.456559308 C157.073914,0.456366235 157.098947,0.456269523 157.124002,0.456269523 Z"/>
  </g>
  <g transform="translate(50 1.6667)">
    <rect fill-opacity="0.7" fill="#98B37D" x="1.66666667" y="26.3580247" width="41.9753086" height="41.9753086" rx="7.33333349"/>
    <rect fill-opacity="0.7" fill="#997868" x="16.4814815" y="1.66666667" width="51.8518519" height="51.8518519" rx="9.33333302"/>
    <rect fill="#997868" x="1.66666667" y="1.66666667" width="9.87654321" height="9.87654321" rx="2.66666675"/>
    <rect fill="#98B37D" x="55.9876543" y="55.9876543" width="12.345679" height="12.345679" rx="3.33333325"/>
  </g>
</svg>
